# xmcd
#
# Track frame offsets: 
#        150
#        9014
#        24773
#        41396
#        56501
#        73454
#        89682
#        105448
#        118789
#        136874
#        151758
#        169226
#        184777
#        201945
#        218798
#        234078
#        252340
#        268511
#
# Disc length: 3781 seconds
#
# Revision: 0
# Processed by: cddbd v1.5.2PL0 Copyright (c) Steve Scherf et al.
# Submitted via: ExactAudioCopyFreeDBPlugin 1.0
#
DISCID=ea0ec312
DTITLE=关正杰 - 再与天比高
DYEAR=2014
DGENRE=Acid
TTITLE0=天蚕变’93 
TTITLE1=换到千般恨 
TTITLE2=情是枉痴心 
TTITLE3=雪心情 
TTITLE4=缘 
TTITLE5=尽在不言中 
TTITLE6=平凡亦快乐 
TTITLE7=明日再明日 
TTITLE8=月亮照高原 
TTITLE9=小生命 
TTITLE10=天籁…星河传说 
TTITLE11=我要走天涯 
TTITLE12=人在雨下 
TTITLE13=漫漫前路 
TTITLE14=问君知否 
TTITLE15=惜别歌 
TTITLE16=红了我的脸 
TTITLE17=Smoke gets in your eye 
EXTD=
EXTT0=
EXTT1=
EXTT2=
EXTT3=
EXTT4=
EXTT5=
EXTT6=
EXTT7=
EXTT8=
EXTT9=
EXTT10=
EXTT11=
EXTT12=
EXTT13=
EXTT14=
EXTT15=
EXTT16=
EXTT17=
PLAYORDER=
